<svg width="244" height="53" viewBox="0 0 244 53" fill="none" xmlns="http://www.w3.org/2000/svg">
<mask id="mask0_172_1201" style="mask-type:luminance" maskUnits="userSpaceOnUse" x="5" y="4" width="43" height="44">
<path d="M44.5425 4.6665H8.56858C6.72041 4.6665 5.22217 6.16474 5.22217 8.01291V43.9868C5.22217 45.835 6.72041 47.3332 8.56858 47.3332H44.5425C46.3906 47.3332 47.8889 45.835 47.8889 43.9868V8.01291C47.8889 6.16474 46.3906 4.6665 44.5425 4.6665Z" fill="white"/>
</mask>
<g mask="url(#mask0_172_1201)">
<path d="M44.5425 4.6665H8.56858C6.72041 4.6665 5.22217 6.16474 5.22217 8.01291V43.9868C5.22217 45.835 6.72041 47.3332 8.56858 47.3332H44.5425C46.3906 47.3332 47.8889 45.835 47.8889 43.9868V8.01291C47.8889 6.16474 46.3906 4.6665 44.5425 4.6665Z" fill="url(#paint0_linear_172_1201)"/>
<path fill-rule="evenodd" clip-rule="evenodd" d="M22.6585 28.9348C23.1485 29.4248 23.9431 29.4248 24.4332 28.9348L29.8228 23.5451C30.3129 23.0551 30.3129 22.2605 29.8228 21.7704L21.8458 13.7935C21.3557 13.3034 20.5612 13.3034 20.0711 13.7935L14.6815 19.1831C14.1914 19.6732 14.1914 20.4677 14.6815 20.9578L22.6585 28.9348ZM30.9069 36.6401C30.9069 37.3332 31.4688 37.895 32.1618 37.895H37.4603C38.1534 37.895 38.7152 37.3332 38.7152 36.6401V31.3416C38.7152 30.6486 38.1534 30.0867 37.4603 30.0867H32.1618C31.4688 30.0867 30.9069 30.6486 30.9069 31.3416V36.6401Z" fill="#3C9C40"/>
<g style="mix-blend-mode:darken">
<path fill-rule="evenodd" clip-rule="evenodd" d="M14.661 37.494C14.4282 37.2662 14.2837 36.9485 14.2837 36.597V31.2985C14.2837 30.7211 14.6736 30.2348 15.2046 30.0885L31.2226 13.8293C31.7115 13.333 32.5112 13.33 33.0039 13.8226L55.9706 36.7893C56.4606 37.2794 56.4606 38.0739 55.9706 38.564L36.7316 57.803C36.2415 58.293 35.4469 58.293 34.9569 57.803L14.7623 37.6084C14.726 37.5722 14.6922 37.534 14.661 37.494Z" fill="#3C9C40"/>
</g>
<path d="M27.5408 30.3438C27.7602 30.175 28.0292 30.0835 28.306 30.0835H37.4673C38.1604 30.0835 38.7222 30.6453 38.7222 31.3384V36.5786C38.7222 37.2717 38.1604 37.8335 37.4673 37.8335H21.4947C20.2965 37.8335 19.7798 36.3146 20.7295 35.584L27.5408 30.3438Z" fill="white"/>
<path d="M21.0053 13.4507H15.5674C14.8743 13.4507 14.3125 14.0126 14.3125 14.7056V20.0041C14.3125 20.6972 14.8743 21.259 15.5674 21.259H21.0053C21.6984 21.259 22.2602 20.6972 22.2602 20.0041V14.7056C22.2602 14.0126 21.6984 13.4507 21.0053 13.4507Z" fill="white"/>
<path d="M17.6309 37.852L25.7375 30.0835H32.7594L24.7705 37.852H17.6309Z" fill="#A8DAAA"/>
<path fill-rule="evenodd" clip-rule="evenodd" d="M21.8386 37.444C21.7288 37.5167 21.6173 37.5886 21.5059 37.659C21.3122 37.7814 21.0827 37.8522 20.8366 37.8522H15.5381C14.8451 37.8522 14.2832 37.2903 14.2832 36.5973V31.2988C14.2832 30.9772 14.4042 30.6839 14.6031 30.4619C14.6884 30.3665 14.7752 30.2715 14.8624 30.1777C14.8729 30.1665 14.8836 30.1554 14.8945 30.1444L31.2231 13.8158C31.7132 13.3257 32.5078 13.3257 32.9978 13.8158L38.3628 19.1807C38.8528 19.6708 38.8528 20.4654 38.3628 20.9554L22.0342 37.284C21.9733 37.3449 21.9077 37.3982 21.8386 37.444Z" fill="white"/>
</g>
<path d="M80.0115 35.5186H67.4189V33.1922L75.5323 21.5602H67.6388V18.5973H79.7916V20.9121L71.6897 32.5556H80.0115V35.5186ZM87.7661 22.3357C88.9621 22.3357 89.9922 22.5672 90.8564 23.0301C91.7206 23.4854 92.388 24.149 92.8587 25.0209C93.3294 25.8928 93.5647 26.9576 93.5647 28.2153V29.9283H85.2198C85.2584 30.9236 85.5554 31.7068 86.111 32.2778C86.6743 32.8411 87.4536 33.1227 88.449 33.1227C89.2746 33.1227 90.0308 33.0378 90.7175 32.8681C91.4042 32.6983 92.1102 32.4437 92.8355 32.1042V34.8357C92.1951 35.152 91.5238 35.3835 90.8216 35.5301C90.1272 35.6767 89.2823 35.75 88.2869 35.75C86.9906 35.75 85.8409 35.5108 84.8378 35.0324C83.8425 34.554 83.0593 33.8249 82.4883 32.8449C81.925 31.865 81.6434 30.6304 81.6434 29.1412C81.6434 27.6289 81.898 26.3712 82.4073 25.3681C82.9243 24.3573 83.642 23.6011 84.5602 23.0996C85.4784 22.5903 86.547 22.3357 87.7661 22.3357ZM87.7892 24.8473C87.1025 24.8473 86.5315 25.0672 86.0763 25.507C85.6287 25.9468 85.3703 26.6374 85.3008 27.5787H90.2545C90.2468 27.054 90.1503 26.5872 89.9652 26.1783C89.7877 25.7693 89.5176 25.4453 89.155 25.2061C88.8 24.9669 88.3448 24.8473 87.7892 24.8473ZM101.887 32.9375C102.272 32.9375 102.647 32.899 103.009 32.8218C103.38 32.7446 103.746 32.6482 104.109 32.5324V35.1598C103.731 35.3295 103.26 35.4684 102.697 35.5764C102.141 35.6922 101.532 35.75 100.868 35.75C100.096 35.75 99.4019 35.6266 98.7846 35.3797C98.175 35.125 97.6928 34.6891 97.3379 34.0718C96.9906 33.4468 96.817 32.5787 96.817 31.4676V25.2292H95.1272V23.7361L97.0716 22.5556L98.0902 19.8241H100.347V22.5787H103.97V25.2292H100.347V31.4676C100.347 31.9615 100.486 32.3318 100.764 32.5787C101.049 32.8179 101.424 32.9375 101.887 32.9375ZM112.187 32.9375C112.573 32.9375 112.948 32.899 113.31 32.8218C113.681 32.7446 114.047 32.6482 114.41 32.5324V35.1598C114.032 35.3295 113.561 35.4684 112.998 35.5764C112.442 35.6922 111.833 35.75 111.169 35.75C110.397 35.75 109.703 35.6266 109.086 35.3797C108.476 35.125 107.994 34.6891 107.639 34.0718C107.292 33.4468 107.118 32.5787 107.118 31.4676V25.2292H105.428V23.7361L107.373 22.5556L108.391 19.8241H110.648V22.5787H114.271V25.2292H110.648V31.4676C110.648 31.9615 110.787 32.3318 111.065 32.5787C111.35 32.8179 111.725 32.9375 112.187 32.9375ZM122.373 22.3357C123.569 22.3357 124.599 22.5672 125.463 23.0301C126.327 23.4854 126.995 24.149 127.465 25.0209C127.936 25.8928 128.171 26.9576 128.171 28.2153V29.9283H119.826C119.865 30.9236 120.162 31.7068 120.718 32.2778C121.281 32.8411 122.06 33.1227 123.056 33.1227C123.881 33.1227 124.637 33.0378 125.324 32.8681C126.011 32.6983 126.717 32.4437 127.442 32.1042V34.8357C126.802 35.152 126.13 35.3835 125.428 35.5301C124.734 35.6767 123.889 35.75 122.894 35.75C121.597 35.75 120.448 35.5108 119.444 35.0324C118.449 34.554 117.666 33.8249 117.095 32.8449C116.532 31.865 116.25 30.6304 116.25 29.1412C116.25 27.6289 116.505 26.3712 117.014 25.3681C117.531 24.3573 118.248 23.6011 119.167 23.0996C120.085 22.5903 121.154 22.3357 122.373 22.3357ZM122.396 24.8473C121.709 24.8473 121.138 25.0672 120.683 25.507C120.235 25.9468 119.977 26.6374 119.907 27.5787H124.861C124.853 27.054 124.757 26.5872 124.572 26.1783C124.394 25.7693 124.124 25.4453 123.762 25.2061C123.407 24.9669 122.951 24.8473 122.396 24.8473ZM134.572 35.5186H131.042V17.5093H134.572V35.5186ZM159.734 35.5186H155.174L147.812 22.7176H147.708C147.739 23.25 147.766 23.7863 147.789 24.3264C147.812 24.8665 147.836 25.4067 147.859 25.9468C147.882 26.4792 147.905 27.0155 147.928 27.5556V35.5186H144.722V18.5973H149.248L156.597 31.2709H156.678C156.663 30.7462 156.644 30.2253 156.62 29.7084C156.597 29.1914 156.574 28.6744 156.551 28.1574C156.535 27.6405 156.52 27.1235 156.505 26.6065V18.5973H159.734V35.5186ZM175.486 29.0255C175.486 30.1057 175.339 31.0625 175.046 31.8959C174.761 32.7292 174.34 33.4352 173.785 34.0139C173.237 34.5849 172.573 35.017 171.794 35.3102C171.022 35.6034 170.15 35.75 169.178 35.75C168.268 35.75 167.431 35.6034 166.667 35.3102C165.91 35.017 165.251 34.5849 164.687 34.0139C164.132 33.4352 163.7 32.7292 163.391 31.8959C163.09 31.0625 162.94 30.1057 162.94 29.0255C162.94 27.5903 163.194 26.375 163.704 25.3797C164.213 24.3843 164.938 23.6281 165.88 23.1111C166.821 22.5942 167.944 22.3357 169.248 22.3357C170.459 22.3357 171.532 22.5942 172.465 23.1111C173.407 23.6281 174.144 24.3843 174.676 25.3797C175.216 26.375 175.486 27.5903 175.486 29.0255ZM166.539 29.0255C166.539 29.8743 166.632 30.588 166.817 31.1667C167.002 31.7454 167.292 32.1814 167.685 32.4746C168.079 32.7678 168.592 32.9144 169.225 32.9144C169.85 32.9144 170.355 32.7678 170.741 32.4746C171.134 32.1814 171.42 31.7454 171.597 31.1667C171.782 30.588 171.875 29.8743 171.875 29.0255C171.875 28.169 171.782 27.4591 171.597 26.8959C171.42 26.3249 171.134 25.8966 170.741 25.6111C170.347 25.3257 169.834 25.1829 169.201 25.1829C168.268 25.1829 167.589 25.5031 167.164 26.1436C166.748 26.784 166.539 27.7446 166.539 29.0255ZM183.854 32.9375C184.24 32.9375 184.614 32.899 184.977 32.8218C185.347 32.7446 185.714 32.6482 186.076 32.5324V35.1598C185.698 35.3295 185.228 35.4684 184.664 35.5764C184.109 35.6922 183.499 35.75 182.836 35.75C182.064 35.75 181.37 35.6266 180.752 35.3797C180.143 35.125 179.66 34.6891 179.306 34.0718C178.958 33.4468 178.785 32.5787 178.785 31.4676V25.2292H177.095V23.7361L179.039 22.5556L180.058 19.8241H182.315V22.5787H185.937V25.2292H182.315V31.4676C182.315 31.9615 182.454 32.3318 182.731 32.5787C183.017 32.8179 183.391 32.9375 183.854 32.9375ZM194.039 22.3357C195.235 22.3357 196.265 22.5672 197.13 23.0301C197.994 23.4854 198.661 24.149 199.132 25.0209C199.603 25.8928 199.838 26.9576 199.838 28.2153V29.9283H191.493C191.532 30.9236 191.829 31.7068 192.384 32.2778C192.948 32.8411 193.727 33.1227 194.722 33.1227C195.548 33.1227 196.304 33.0378 196.991 32.8681C197.677 32.6983 198.383 32.4437 199.109 32.1042V34.8357C198.468 35.152 197.797 35.3835 197.095 35.5301C196.4 35.6767 195.556 35.75 194.56 35.75C193.264 35.75 192.114 35.5108 191.111 35.0324C190.116 34.554 189.333 33.8249 188.762 32.8449C188.198 31.865 187.917 30.6304 187.917 29.1412C187.917 27.6289 188.171 26.3712 188.681 25.3681C189.198 24.3573 189.915 23.6011 190.833 23.0996C191.752 22.5903 192.82 22.3357 194.039 22.3357ZM194.062 24.8473C193.376 24.8473 192.805 25.0672 192.35 25.507C191.902 25.9468 191.644 26.6374 191.574 27.5787H196.528C196.52 27.054 196.424 26.5872 196.238 26.1783C196.061 25.7693 195.791 25.4453 195.428 25.2061C195.073 24.9669 194.618 24.8473 194.062 24.8473ZM211.736 31.676C211.736 32.5556 211.528 33.3002 211.111 33.9098C210.702 34.5116 210.089 34.9707 209.271 35.2871C208.453 35.5957 207.434 35.75 206.215 35.75C205.312 35.75 204.537 35.6922 203.889 35.5764C203.248 35.4607 202.6 35.2678 201.944 34.9977V32.0811C202.647 32.3974 203.399 32.6598 204.201 32.8681C205.012 33.0687 205.721 33.169 206.331 33.169C207.018 33.169 207.508 33.0687 207.801 32.8681C208.102 32.6598 208.252 32.3897 208.252 32.0579C208.252 31.8419 208.191 31.649 208.067 31.4792C207.951 31.3017 207.697 31.105 207.303 30.8889C206.91 30.6652 206.292 30.3758 205.451 30.0209C204.641 29.6814 203.974 29.338 203.449 28.9908C202.932 28.6436 202.546 28.2346 202.292 27.7639C202.045 27.2855 201.921 26.6798 201.921 25.9468C201.921 24.7508 202.384 23.8519 203.31 23.25C204.244 22.6405 205.49 22.3357 207.049 22.3357C207.851 22.3357 208.615 22.4167 209.34 22.5787C210.073 22.7408 210.826 22.9993 211.597 23.3542L210.532 25.9005C209.892 25.6227 209.286 25.3951 208.715 25.2176C208.152 25.0402 207.577 24.9514 206.991 24.9514C206.474 24.9514 206.084 25.0209 205.822 25.1598C205.559 25.2986 205.428 25.5108 205.428 25.7963C205.428 26.0047 205.494 26.1899 205.625 26.3519C205.764 26.5139 206.026 26.6953 206.412 26.8959C206.806 27.0888 207.38 27.3395 208.137 27.6482C208.87 27.9491 209.506 28.2655 210.046 28.5973C210.586 28.9213 211.003 29.3264 211.296 29.8125C211.59 30.2909 211.736 30.9121 211.736 31.676Z" fill="black"/>
<defs>
<linearGradient id="paint0_linear_172_1201" x1="26.5555" y1="4.6665" x2="47.8888" y2="47.3332" gradientUnits="userSpaceOnUse">
<stop stop-color="#61E066"/>
<stop offset="1" stop-color="#4CAF50"/>
</linearGradient>
</defs>
</svg>
