<svg width="30" height="30" viewBox="0 0 30 30" fill="none" xmlns="http://www.w3.org/2000/svg">
<path d="M15 3.75V18.75" stroke="#61E066" stroke-width="2.5" stroke-linecap="round" stroke-linejoin="round"/>
<path d="M10 13.75L15 18.75L20 13.75" stroke="#61E066" stroke-width="2.5" stroke-linecap="round" stroke-linejoin="round"/>
<path d="M10 6.25H5C4.33696 6.25 3.70107 6.51339 3.23223 6.98223C2.76339 7.45107 2.5 8.08696 2.5 8.75V21.25C2.5 21.913 2.76339 22.5489 3.23223 23.0178C3.70107 23.4866 4.33696 23.75 5 23.75H25C25.663 23.75 26.2989 23.4866 26.7678 23.0178C27.2366 22.5489 27.5 21.913 27.5 21.25V8.75C27.5 8.08696 27.2366 7.45107 26.7678 6.98223C26.2989 6.51339 25.663 6.25 25 6.25H20" stroke="#61E066" stroke-width="2.5" stroke-linecap="round" stroke-linejoin="round"/>
</svg>
