<svg width="32" height="32" viewBox="0 0 32 32" fill="none" xmlns="http://www.w3.org/2000/svg">
<mask id="mask0_118_643" style="mask-type:alpha" maskUnits="userSpaceOnUse" x="0" y="0" width="32" height="32">
<rect width="32" height="32" fill="#D9D9D9"/>
</mask>
<g mask="url(#mask0_118_643)">
<path d="M5.33332 26.6663C4.59999 26.6663 3.97221 26.4052 3.44999 25.883C2.92777 25.3608 2.66666 24.733 2.66666 23.9997V7.99967C2.66666 7.26634 2.92777 6.63856 3.44999 6.11634C3.97221 5.59412 4.59999 5.33301 5.33332 5.33301H26.6667C27.4 5.33301 28.0278 5.59412 28.55 6.11634C29.0722 6.63856 29.3333 7.26634 29.3333 7.99967V23.9997C29.3333 24.733 29.0722 25.3608 28.55 25.883C28.0278 26.4052 27.4 26.6663 26.6667 26.6663H5.33332ZM16 17.0997C16.1111 17.0997 16.2278 17.083 16.35 17.0497C16.4722 17.0163 16.5889 16.9663 16.7 16.8997L26.1333 10.9997C26.3111 10.8886 26.4444 10.7497 26.5333 10.583C26.6222 10.4163 26.6667 10.233 26.6667 10.033C26.6667 9.58856 26.4778 9.25523 26.1 9.03301C25.7222 8.81079 25.3333 8.8219 24.9333 9.06634L16 14.6663L7.06666 9.06634C6.66666 8.8219 6.27777 8.81634 5.89999 9.04967C5.52221 9.28301 5.33332 9.61079 5.33332 10.033C5.33332 10.2552 5.37777 10.4497 5.46666 10.6163C5.55555 10.783 5.68888 10.9108 5.86666 10.9997L15.3 16.8997C15.4111 16.9663 15.5278 17.0163 15.65 17.0497C15.7722 17.083 15.8889 17.0997 16 17.0997Z" fill="#61E066"/>
</g>
</svg>
