<svg width="32" height="32" viewBox="0 0 32 32" fill="none" xmlns="http://www.w3.org/2000/svg">
<g clip-path="url(#clip0_118_666)">
<path d="M31.8928 7.60682C32.6071 10.1068 32.6071 15.464 32.6071 15.464C32.6071 15.464 32.6071 20.7616 31.8928 23.3211C31.5357 24.7497 30.4047 25.8211 29.0357 26.1782C26.4762 26.833 16.3571 26.833 16.3571 26.833C16.3571 26.833 6.17854 26.833 3.61902 26.1782C2.24997 25.8211 1.11902 24.7497 0.761877 23.3211C0.0475916 20.7616 0.0475916 15.464 0.0475916 15.464C0.0475916 15.464 0.0475916 10.1068 0.761877 7.60682C1.11902 6.17824 2.24997 5.04729 3.61902 4.69015C6.17854 3.97586 16.3571 3.97586 16.3571 3.97586C16.3571 3.97586 26.4762 3.97586 29.0357 4.69015C30.4047 5.04729 31.5357 6.17824 31.8928 7.60682ZM13.0238 20.2854L21.4762 15.464L13.0238 10.6425V20.2854Z" fill="#FE0032"/>
</g>
<defs>
<clipPath id="clip0_118_666">
<rect width="32" height="32" fill="white"/>
</clipPath>
</defs>
</svg>
