<svg width="18" height="18" viewBox="0 0 18 18" fill="none" xmlns="http://www.w3.org/2000/svg">
<g clip-path="url(#clip0_118_672)">
<path d="M9 16.5C13.1421 16.5 16.5 13.1421 16.5 9C16.5 4.85786 13.1421 1.5 9 1.5C4.85786 1.5 1.5 4.85786 1.5 9C1.5 13.1421 4.85786 16.5 9 16.5Z" stroke="black" stroke-width="1.5" stroke-linecap="round" stroke-linejoin="round"/>
<path d="M11.1225 11.1225C10.7028 11.5417 10.1682 11.8271 9.58639 11.9426C9.00454 12.0581 8.40151 11.9985 7.85353 11.7713C7.30554 11.5442 6.83721 11.1596 6.50771 10.6664C6.17821 10.1731 6.00235 9.5932 6.00235 9C6.00235 8.4068 6.17821 7.82691 6.50771 7.33364C6.83721 6.84036 7.30554 6.45584 7.85353 6.22868C8.40151 6.00152 9.00454 5.94192 9.58639 6.0574C10.1682 6.17289 10.7028 6.45828 11.1225 6.8775" stroke="black" stroke-width="1.5" stroke-linecap="round" stroke-linejoin="round"/>
</g>
<defs>
<clipPath id="clip0_118_672">
<rect width="18" height="18" fill="white"/>
</clipPath>
</defs>
</svg>
