<svg width="30" height="30" viewBox="0 0 30 30" fill="none" xmlns="http://www.w3.org/2000/svg">
<path d="M13.75 10H6.25C4.86929 10 3.75 11.1193 3.75 12.5V25C3.75 26.3807 4.86929 27.5 6.25 27.5H13.75C15.1307 27.5 16.25 26.3807 16.25 25V12.5C16.25 11.1193 15.1307 10 13.75 10Z" stroke="#61E066" stroke-width="2.5" stroke-linecap="round" stroke-linejoin="round"/>
<path d="M6.25 5C6.25 4.33696 6.51339 3.70107 6.98223 3.23223C7.45107 2.76339 8.08696 2.5 8.75 2.5H23.75C24.413 2.5 25.0489 2.76339 25.5178 3.23223C25.9866 3.70107 26.25 4.33696 26.25 5V25C26.25 25.663 25.9866 26.2989 25.5178 26.7678C25.0489 27.2366 24.413 27.5 23.75 27.5H20.75" stroke="#61E066" stroke-width="2.5" stroke-linecap="round" stroke-linejoin="round"/>
<path d="M10 22.5H10.0125" stroke="#61E066" stroke-width="2.5" stroke-linecap="round" stroke-linejoin="round"/>
</svg>
