<svg width="32" height="32" viewBox="0 0 32 32" fill="none" xmlns="http://www.w3.org/2000/svg">
<path d="M10.8928 23.8568C10.8928 23.9759 10.7738 24.0354 10.5952 24.0354C10.4166 24.0949 10.2976 23.9759 10.2976 23.8568C10.2976 23.7378 10.4166 23.6187 10.5952 23.6187C10.7738 23.6187 10.8928 23.7378 10.8928 23.8568ZM9.0476 23.5592C9.10712 23.4402 9.28569 23.3806 9.46427 23.4402C9.64284 23.4997 9.70236 23.6187 9.70236 23.7378C9.64284 23.8568 9.46427 23.9163 9.34522 23.8568C9.16665 23.8568 9.0476 23.6782 9.0476 23.5592ZM11.7262 23.4997C11.8452 23.4402 12.0238 23.5592 12.0238 23.6782C12.0833 23.7973 11.9643 23.8568 11.7857 23.9163C11.6071 23.9759 11.4286 23.9163 11.4286 23.7973C11.4286 23.6187 11.5476 23.4997 11.7262 23.4997ZM15.5952 0.64253C23.869 0.64253 30.5952 6.95205 30.5952 15.1663C30.5952 21.7735 26.5476 27.4282 20.5952 29.3925C19.8214 29.5711 19.5238 29.0949 19.5238 28.6782C19.5238 28.2021 19.5833 25.7021 19.5833 23.7378C19.5833 22.3092 19.1071 21.4163 18.5714 20.9402C21.9047 20.583 25.4166 20.1068 25.4166 14.3925C25.4166 12.7259 24.8214 11.9521 23.869 10.8806C23.9881 10.464 24.5238 8.91634 23.6905 6.83301C22.4405 6.41634 19.5833 8.44015 19.5833 8.44015C18.3928 8.08301 17.1428 7.96396 15.8333 7.96396C14.5833 7.96396 13.3333 8.08301 12.1428 8.44015C12.1428 8.44015 9.22617 6.47586 8.03569 6.83301C7.20236 8.91634 7.67855 10.464 7.85712 10.8806C6.90474 11.9521 6.42855 12.7259 6.42855 14.3925C6.42855 20.1068 9.82141 20.583 13.1547 20.9402C12.6786 21.3568 12.3214 22.0116 12.2024 22.964C11.3095 23.3806 9.16665 24.0354 7.85712 21.714C7.02379 20.2854 5.53569 20.1663 5.53569 20.1663C4.10712 20.1663 5.47617 21.1187 5.47617 21.1187C6.42855 21.5354 7.08331 23.2616 7.08331 23.2616C7.97617 25.9402 12.1428 25.0473 12.1428 25.0473C12.1428 26.2973 12.1428 28.3211 12.1428 28.7378C12.1428 29.0949 11.9047 29.5711 11.1309 29.4521C5.17855 27.4282 1.07141 21.7735 1.07141 15.1663C1.07141 6.95205 7.38093 0.64253 15.5952 0.64253ZM6.84522 21.1782C6.90474 21.1187 7.02379 21.1782 7.14284 21.2378C7.26188 21.3568 7.26188 21.5354 7.20236 21.5949C7.08331 21.6544 6.96426 21.5949 6.84522 21.5354C6.78569 21.4163 6.72617 21.2378 6.84522 21.1782ZM6.19046 20.7021C6.24998 20.6425 6.3095 20.6425 6.42855 20.7021C6.5476 20.7616 6.60712 20.8211 6.60712 20.8806C6.5476 20.9997 6.42855 20.9997 6.3095 20.9402C6.19046 20.8806 6.13093 20.8211 6.19046 20.7021ZM8.09522 22.8449C8.21426 22.7259 8.39284 22.7854 8.51188 22.9044C8.63093 23.0235 8.63093 23.2021 8.57141 23.2616C8.51188 23.3806 8.33331 23.3211 8.21426 23.2021C8.03569 23.083 8.03569 22.9044 8.09522 22.8449ZM7.44046 21.9521C7.5595 21.8925 7.67855 21.9521 7.7976 22.0711C7.85712 22.1902 7.85712 22.3687 7.7976 22.4282C7.67855 22.4878 7.5595 22.4282 7.44046 22.3092C7.32141 22.1902 7.32141 22.0116 7.44046 21.9521Z" fill="#333333"/>
</svg>
