<svg width="32" height="32" viewBox="0 0 32 32" fill="none" xmlns="http://www.w3.org/2000/svg">
<path d="M12.666 23.6657V22.3377C12.666 17.3697 16.698 13.333 21.666 13.333C26.634 13.333 30.666 17.3697 30.666 22.3377V23.6657C30.666 24.5857 29.9193 25.333 28.9993 25.333H14.3327C13.4127 25.3337 12.666 24.5857 12.666 23.6657Z" fill="#2196F3"/>
<path d="M21.666 3.33496C24.058 3.33496 25.9993 5.27896 25.9993 7.67096C25.9993 10.063 24.058 12.007 21.666 12.007C19.274 12.007 17.3327 10.063 17.3327 7.67096C17.3327 5.27896 19.274 3.33496 21.666 3.33496Z" fill="#2196F3"/>
<path d="M1.33267 29.334V22.3367C1.33267 17.3687 5.36467 13.332 10.3327 13.332C12.4827 13.332 14.4573 14.0874 16.0053 15.348L14.41 25.332H8.55201L3.60734 30.2767C3.36667 30.5174 3.03334 30.6667 2.66534 30.6667C1.93001 30.6674 1.33267 30.0687 1.33267 29.334Z" fill="#2196F3"/>
<path d="M10.3327 3.33398C12.7247 3.33398 14.666 5.27798 14.666 7.66998C14.666 10.062 12.7247 12.006 10.3327 12.006C7.94066 12.006 5.99933 10.062 5.99933 7.66998C5.99933 5.27798 7.94066 3.33398 10.3327 3.33398Z" fill="#2196F3"/>
<path fill-rule="evenodd" clip-rule="evenodd" d="M12.666 23.6657V22.3377C12.666 19.5164 13.9667 16.9957 16 15.3438C18.0327 16.9951 19.3327 19.5164 19.3327 22.3358V23.6637C19.3327 24.5837 18.586 25.3311 17.666 25.3311H14.2493C13.3673 25.2884 12.666 24.5584 12.666 23.6657Z" fill="#1574C0"/>
</svg>
