<svg width="30" height="30" viewBox="0 0 30 30" fill="none" xmlns="http://www.w3.org/2000/svg">
<path d="M25 16.2501C25 22.5001 20.625 25.6251 15.425 27.4376C15.1527 27.5298 14.8569 27.5254 14.5875 27.4251C9.375 25.6251 5 22.5001 5 16.2501V7.50007C5 7.16855 5.1317 6.85061 5.36612 6.61619C5.60054 6.38177 5.91848 6.25007 6.25 6.25007C8.75 6.25007 11.875 4.75007 14.05 2.85007C14.3148 2.62382 14.6517 2.49951 15 2.49951C15.3483 2.49951 15.6852 2.62382 15.95 2.85007C18.1375 4.76257 21.25 6.25007 23.75 6.25007C24.0815 6.25007 24.3995 6.38177 24.6339 6.61619C24.8683 6.85061 25 7.16855 25 7.50007V16.2501Z" stroke="#61E066" stroke-width="2.5" stroke-linecap="round" stroke-linejoin="round"/>
<path d="M11.25 15L13.75 17.5L18.75 12.5" stroke="#61E066" stroke-width="2.5" stroke-linecap="round" stroke-linejoin="round"/>
</svg>
