<svg width="145" height="24" viewBox="0 0 145 24" fill="none" xmlns="http://www.w3.org/2000/svg">
<path d="M11.525 2.29489C11.5688 2.20635 11.6365 2.13183 11.7205 2.07972C11.8044 2.02761 11.9012 2 12 2C12.0988 2 12.1956 2.02761 12.2795 2.07972C12.3635 2.13183 12.4312 2.20635 12.475 2.29489L14.785 6.97389C14.9372 7.28186 15.1618 7.5483 15.4396 7.75035C15.7174 7.95239 16.0401 8.08401 16.38 8.13389L21.546 8.88989C21.6439 8.90408 21.7358 8.94537 21.8115 9.00909C21.8871 9.07282 21.9434 9.15644 21.974 9.2505C22.0046 9.34456 22.0083 9.4453 21.9846 9.54133C21.9609 9.63736 21.9108 9.72485 21.84 9.79389L18.104 13.4319C17.8576 13.672 17.6733 13.9684 17.5668 14.2955C17.4604 14.6227 17.4351 14.9708 17.493 15.3099L18.375 20.4499C18.3923 20.5477 18.3817 20.6485 18.3445 20.7406C18.3073 20.8327 18.2449 20.9125 18.1645 20.9709C18.0842 21.0293 17.989 21.0639 17.8899 21.0708C17.7908 21.0777 17.6917 21.0566 17.604 21.0099L12.986 18.5819C12.6817 18.4221 12.3432 18.3386 11.9995 18.3386C11.6558 18.3386 11.3173 18.4221 11.013 18.5819L6.396 21.0099C6.30833 21.0563 6.2094 21.0772 6.11045 21.0701C6.0115 21.0631 5.91652 21.0285 5.83629 20.9701C5.75607 20.9118 5.69383 20.8321 5.65666 20.7401C5.61948 20.6481 5.60886 20.5476 5.626 20.4499L6.507 15.3109C6.5652 14.9716 6.53998 14.6233 6.43354 14.2959C6.32709 13.9686 6.14261 13.672 5.896 13.4319L2.16 9.79489C2.08859 9.72593 2.03799 9.63829 2.01396 9.54197C1.98993 9.44565 1.99344 9.34451 2.02408 9.25008C2.05472 9.15566 2.11127 9.07174 2.18728 9.00788C2.26329 8.94402 2.3557 8.90279 2.454 8.88889L7.619 8.13389C7.95926 8.08439 8.28239 7.95295 8.56058 7.75088C8.83878 7.54881 9.0637 7.28216 9.216 6.97389L11.525 2.29489Z" fill="#61E066"/>
<path d="M41.775 2.29489C41.8188 2.20635 41.8865 2.13183 41.9705 2.07972C42.0544 2.02761 42.1512 2 42.25 2C42.3488 2 42.4456 2.02761 42.5295 2.07972C42.6135 2.13183 42.6812 2.20635 42.725 2.29489L45.035 6.97389C45.1872 7.28186 45.4118 7.5483 45.6896 7.75035C45.9674 7.95239 46.2901 8.08401 46.63 8.13389L51.796 8.88989C51.8939 8.90408 51.9858 8.94537 52.0615 9.00909C52.1371 9.07282 52.1934 9.15644 52.224 9.2505C52.2546 9.34456 52.2583 9.4453 52.2346 9.54133C52.2109 9.63736 52.1608 9.72485 52.09 9.79389L48.354 13.4319C48.1076 13.672 47.9233 13.9684 47.8168 14.2955C47.7104 14.6227 47.6851 14.9708 47.743 15.3099L48.625 20.4499C48.6423 20.5477 48.6317 20.6485 48.5945 20.7406C48.5573 20.8327 48.4949 20.9125 48.4145 20.9709C48.3342 21.0293 48.239 21.0639 48.1399 21.0708C48.0408 21.0777 47.9417 21.0566 47.854 21.0099L43.236 18.5819C42.9317 18.4221 42.5932 18.3386 42.2495 18.3386C41.9058 18.3386 41.5673 18.4221 41.263 18.5819L36.646 21.0099C36.5583 21.0563 36.4594 21.0772 36.3605 21.0701C36.2615 21.0631 36.1665 21.0285 36.0863 20.9701C36.0061 20.9118 35.9438 20.8321 35.9067 20.7401C35.8695 20.6481 35.8589 20.5476 35.876 20.4499L36.757 15.3109C36.8152 14.9716 36.79 14.6233 36.6835 14.2959C36.5771 13.9686 36.3926 13.672 36.146 13.4319L32.41 9.79489C32.3386 9.72593 32.288 9.63829 32.264 9.54197C32.2399 9.44565 32.2434 9.34451 32.2741 9.25008C32.3047 9.15566 32.3613 9.07174 32.4373 9.00788C32.5133 8.94402 32.6057 8.90279 32.704 8.88889L37.869 8.13389C38.2093 8.08439 38.5324 7.95295 38.8106 7.75088C39.0888 7.54881 39.3137 7.28216 39.466 6.97389L41.775 2.29489Z" fill="#61E066"/>
<path d="M72.025 2.29489C72.0688 2.20635 72.1365 2.13183 72.2205 2.07972C72.3044 2.02761 72.4012 2 72.5 2C72.5988 2 72.6956 2.02761 72.7795 2.07972C72.8635 2.13183 72.9312 2.20635 72.975 2.29489L75.285 6.97389C75.4372 7.28186 75.6618 7.5483 75.9396 7.75035C76.2174 7.95239 76.5401 8.08401 76.88 8.13389L82.046 8.88989C82.1439 8.90408 82.2358 8.94537 82.3115 9.00909C82.3871 9.07282 82.4434 9.15644 82.474 9.2505C82.5046 9.34456 82.5083 9.4453 82.4846 9.54133C82.4609 9.63736 82.4108 9.72485 82.34 9.79389L78.604 13.4319C78.3576 13.672 78.1733 13.9684 78.0668 14.2955C77.9604 14.6227 77.9351 14.9708 77.993 15.3099L78.875 20.4499C78.8923 20.5477 78.8817 20.6485 78.8445 20.7406C78.8073 20.8327 78.7449 20.9125 78.6645 20.9709C78.5842 21.0293 78.489 21.0639 78.3899 21.0708C78.2908 21.0777 78.1917 21.0566 78.104 21.0099L73.486 18.5819C73.1817 18.4221 72.8432 18.3386 72.4995 18.3386C72.1558 18.3386 71.8173 18.4221 71.513 18.5819L66.896 21.0099C66.8083 21.0563 66.7094 21.0772 66.6105 21.0701C66.5115 21.0631 66.4165 21.0285 66.3363 20.9701C66.2561 20.9118 66.1938 20.8321 66.1567 20.7401C66.1195 20.6481 66.1089 20.5476 66.126 20.4499L67.007 15.3109C67.0652 14.9716 67.04 14.6233 66.9335 14.2959C66.8271 13.9686 66.6426 13.672 66.396 13.4319L62.66 9.79489C62.5886 9.72593 62.538 9.63829 62.514 9.54197C62.4899 9.44565 62.4934 9.34451 62.5241 9.25008C62.5547 9.15566 62.6113 9.07174 62.6873 9.00788C62.7633 8.94402 62.8557 8.90279 62.954 8.88889L68.119 8.13389C68.4593 8.08439 68.7824 7.95295 69.0606 7.75088C69.3388 7.54881 69.5637 7.28216 69.716 6.97389L72.025 2.29489Z" fill="#61E066"/>
<path d="M102.275 2.29489C102.319 2.20635 102.387 2.13183 102.47 2.07972C102.554 2.02761 102.651 2 102.75 2C102.849 2 102.946 2.02761 103.03 2.07972C103.113 2.13183 103.181 2.20635 103.225 2.29489L105.535 6.97389C105.687 7.28186 105.912 7.5483 106.19 7.75035C106.467 7.95239 106.79 8.08401 107.13 8.13389L112.296 8.88989C112.394 8.90408 112.486 8.94537 112.561 9.00909C112.637 9.07282 112.693 9.15644 112.724 9.2505C112.755 9.34456 112.758 9.4453 112.735 9.54133C112.711 9.63736 112.661 9.72485 112.59 9.79389L108.854 13.4319C108.608 13.672 108.423 13.9684 108.317 14.2955C108.21 14.6227 108.185 14.9708 108.243 15.3099L109.125 20.4499C109.142 20.5477 109.132 20.6485 109.094 20.7406C109.057 20.8327 108.995 20.9125 108.915 20.9709C108.834 21.0293 108.739 21.0639 108.64 21.0708C108.541 21.0777 108.442 21.0566 108.354 21.0099L103.736 18.5819C103.432 18.4221 103.093 18.3386 102.749 18.3386C102.406 18.3386 102.067 18.4221 101.763 18.5819L97.146 21.0099C97.0583 21.0563 96.9594 21.0772 96.8605 21.0701C96.7615 21.0631 96.6665 21.0285 96.5863 20.9701C96.5061 20.9118 96.4438 20.8321 96.4067 20.7401C96.3695 20.6481 96.3589 20.5476 96.376 20.4499L97.257 15.3109C97.3152 14.9716 97.29 14.6233 97.1835 14.2959C97.0771 13.9686 96.8926 13.672 96.646 13.4319L92.91 9.79489C92.8386 9.72593 92.788 9.63829 92.764 9.54197C92.7399 9.44565 92.7434 9.34451 92.7741 9.25008C92.8047 9.15566 92.8613 9.07174 92.9373 9.00788C93.0133 8.94402 93.1057 8.90279 93.204 8.88889L98.369 8.13389C98.7093 8.08439 99.0324 7.95295 99.3106 7.75088C99.5888 7.54881 99.8137 7.28216 99.966 6.97389L102.275 2.29489Z" fill="#61E066"/>
<path d="M132.525 2.29489C132.569 2.20635 132.637 2.13183 132.72 2.07972C132.804 2.02761 132.901 2 133 2C133.099 2 133.196 2.02761 133.28 2.07972C133.363 2.13183 133.431 2.20635 133.475 2.29489L135.785 6.97389C135.937 7.28186 136.162 7.5483 136.44 7.75035C136.717 7.95239 137.04 8.08401 137.38 8.13389L142.546 8.88989C142.644 8.90408 142.736 8.94537 142.811 9.00909C142.887 9.07282 142.943 9.15644 142.974 9.2505C143.005 9.34456 143.008 9.4453 142.985 9.54133C142.961 9.63736 142.911 9.72485 142.84 9.79389L139.104 13.4319C138.858 13.672 138.673 13.9684 138.567 14.2955C138.46 14.6227 138.435 14.9708 138.493 15.3099L139.375 20.4499C139.392 20.5477 139.382 20.6485 139.344 20.7406C139.307 20.8327 139.245 20.9125 139.165 20.9709C139.084 21.0293 138.989 21.0639 138.89 21.0708C138.791 21.0777 138.692 21.0566 138.604 21.0099L133.986 18.5819C133.682 18.4221 133.343 18.3386 132.999 18.3386C132.656 18.3386 132.317 18.4221 132.013 18.5819L127.396 21.0099C127.308 21.0563 127.209 21.0772 127.11 21.0701C127.012 21.0631 126.917 21.0285 126.836 20.9701C126.756 20.9118 126.694 20.8321 126.657 20.7401C126.619 20.6481 126.609 20.5476 126.626 20.4499L127.507 15.3109C127.565 14.9716 127.54 14.6233 127.434 14.2959C127.327 13.9686 127.143 13.672 126.896 13.4319L123.16 9.79489C123.089 9.72593 123.038 9.63829 123.014 9.54197C122.99 9.44565 122.993 9.34451 123.024 9.25008C123.055 9.15566 123.111 9.07174 123.187 9.00788C123.263 8.94402 123.356 8.90279 123.454 8.88889L128.619 8.13389C128.959 8.08439 129.282 7.95295 129.561 7.75088C129.839 7.54881 130.064 7.28216 130.216 6.97389L132.525 2.29489Z" fill="#61E066"/>
</svg>
