<svg width="32" height="32" viewBox="0 0 32 32" fill="none" xmlns="http://www.w3.org/2000/svg">
<g clip-path="url(#clip0_118_578)">
<path d="M16 32C24.8366 32 32 24.8366 32 16C32 7.16344 24.8366 0 16 0C7.16344 0 0 7.16344 0 16C0 24.8366 7.16344 32 16 32Z" fill="url(#paint0_linear_118_578)"/>
<path fill-rule="evenodd" clip-rule="evenodd" d="M7.2425 15.8309C11.9068 13.7988 15.0171 12.459 16.5733 11.8117C21.0167 9.96359 21.94 9.64255 22.5418 9.63195C22.6742 9.62962 22.9701 9.66242 23.1618 9.81797C23.3237 9.94931 23.3682 10.1267 23.3895 10.2513C23.4108 10.3758 23.4374 10.6595 23.4163 10.8811C23.1755 13.4111 22.1336 19.5507 21.6035 22.3843C21.3793 23.5833 20.9376 23.9853 20.5101 24.0247C19.5809 24.1102 18.8754 23.4106 17.9755 22.8207C16.5673 21.8976 15.7717 21.323 14.4048 20.4222C12.8251 19.3812 13.8492 18.8091 14.7494 17.874C14.985 17.6293 19.0789 13.9056 19.1581 13.5678C19.168 13.5256 19.1772 13.3681 19.0837 13.285C18.9901 13.2018 18.852 13.2302 18.7524 13.2529C18.6112 13.2849 16.3615 14.7718 12.0035 17.7136C11.365 18.1521 10.7866 18.3657 10.2684 18.3545C9.69708 18.3422 8.59816 18.0315 7.78123 17.766C6.77923 17.4403 5.98286 17.2681 6.0522 16.7149C6.08832 16.4268 6.48509 16.1321 7.2425 15.8309Z" fill="white"/>
</g>
<defs>
<linearGradient id="paint0_linear_118_578" x1="16" y1="0" x2="16" y2="31.7627" gradientUnits="userSpaceOnUse">
<stop stop-color="#2AABEE"/>
<stop offset="1" stop-color="#229ED9"/>
</linearGradient>
<clipPath id="clip0_118_578">
<rect width="32" height="32" fill="white"/>
</clipPath>
</defs>
</svg>
